<svg width="245" height="245" viewBox="0 0 245 245" fill="none" xmlns="http://www.w3.org/2000/svg">
<g clip-path="url(#clip0_16_61)">
<path fill-rule="evenodd" clip-rule="evenodd" d="M122.354 59.375C117.439 59.375 113.417 55.3671 113.417 50.4687V0H38.9375C34.0014 0 30 3.9874 30 8.90625V181.094C30 186.013 34.0014 190 38.9375 190H98.64C98.64 177.087 101.954 164.946 107.782 154.375H54.0362L54.217 136.383L68.932 121.719C70.6772 119.98 73.3259 120.16 75.0711 121.899L89.7862 136.562L128.335 98.1487C130.08 96.4098 132.909 96.4098 134.655 98.1487L149.37 112.812V119.72C156.793 117.242 164.739 115.9 173 115.9V59.375H122.354ZM173 45.2515V47.5H125.333V0H127.59C129.96 1.235e-05 132.233 0.938283 133.909 2.60841L170.382 38.9538C172.058 40.6241 173 42.8895 173 45.2515ZM71.9112 65.3125C81.7835 65.3125 89.7862 73.2874 89.7862 83.125C89.7862 92.9626 81.7835 100.937 71.9112 100.937C62.0391 100.937 54.0362 92.9626 54.0362 83.125C54.0362 73.2874 62.0394 65.3125 71.9112 65.3125Z" fill="#1B92FA"/>
<path d="M227.428 187.655L216.09 184.604C215.813 179.155 214.495 173.82 212.204 168.868L220.817 160.889C221.81 159.978 222.004 158.551 221.33 157.433C216.76 150.094 210.551 143.969 203.283 139.389C202.167 138.69 200.659 138.824 199.69 139.73L191.077 147.708C186.032 145.291 180.549 143.815 174.896 143.356L172.177 132.349C171.867 131.094 170.683 130.221 169.328 130.27C160.28 130.554 151.497 132.818 143.756 136.585C142.535 137.173 141.893 138.497 142.203 139.752L144.927 150.781C140.166 153.836 136.001 157.695 132.632 162.166L121.318 159.109C120.016 158.765 118.637 159.32 117.98 160.481C113.674 167.895 111.031 176.206 110.408 184.851C110.309 186.16 111.169 187.327 112.471 187.671L123.809 190.722C124.086 196.172 125.404 201.507 127.695 206.459L119.082 214.438C118.089 215.349 117.895 216.776 118.569 217.894C123.139 225.233 129.348 231.358 136.615 235.937C137.732 236.637 139.24 236.502 140.209 235.597L148.822 227.619C153.867 230.036 159.349 231.512 165.003 231.971L167.727 243C168.037 244.256 169.222 245.128 170.576 245.079C179.624 244.795 188.407 242.531 196.148 238.764C197.37 238.177 198.012 236.853 197.701 235.597L194.978 224.568C199.739 221.513 203.904 217.654 207.272 213.183L218.61 216.234C219.912 216.579 221.291 216.024 221.948 214.863C226.254 207.449 228.897 199.137 229.52 190.492C229.567 189.173 228.73 188 227.428 187.655ZM174.364 205.589C164.037 208.139 153.643 202.168 151.201 192.282C148.76 182.396 155.179 172.272 165.506 169.721C175.833 167.171 186.227 173.142 188.669 183.028C191.11 192.914 184.691 203.038 174.364 205.589Z" fill="#D3D3D3"/>
</g>
<defs>
<clipPath id="clip0_16_61">
<rect width="245" height="245" fill="white"/>
</clipPath>
</defs>
</svg>
